<svg xmlns="http://www.w3.org/2000/svg"  viewBox="0 0 48 48" width="48px" height="48px" baseProfile="basic"><path d="M37,18H11c-2.757,0-5,2.243-5,5v16c0,2.757,2.243,5,5,5h26c2.757,0,5-2.243,5-5V23C42,20.243,39.757,18,37,18z"/><path fill="#fff" d="M37,41H11c-2.209,0-4-1.791-4-4V11c0-2.209,1.791-4,4-4h26c2.209,0,4,1.791,4,4v26	C41,39.209,39.209,41,37,41z"/><path d="M37,42H11c-2.757,0-5-2.243-5-5V11c0-2.757,2.243-5,5-5h26c2.757,0,5,2.243,5,5v26C42,39.757,39.757,42,37,42z M11,8	c-1.654,0-3,1.346-3,3v26c0,1.654,1.346,3,3,3h26c1.654,0,3-1.346,3-3V11c0-1.654-1.346-3-3-3H11z"/><path d="M28,36h-8c-4.411,0-8-3.589-8-8v-8c0-4.411,3.589-8,8-8h4c4.411,0,8,3.589,8,8v0.5c0,0.275,0.225,0.5,0.5,0.5h1	c1.379,0,2.5,1.121,2.5,2.5V28C36,32.411,32.411,36,28,36z M20,14c-3.309,0-6,2.691-6,6v8c0,3.309,2.691,6,6,6h8	c3.309,0,6-2.691,6-6v-4.5c0-0.275-0.225-0.5-0.5-0.5h-1c-1.379,0-2.5-1.121-2.5-2.5V20c0-3.309-2.691-6-6-6H20z"/><path d="M20,19h5c0.553,0,1,0.448,1,1s-0.447,1-1,1h-5c-0.553,0-1-0.448-1-1S19.447,19,20,19z"/><path d="M25,19c0.553,0,1,0.448,1,1s-0.447,1-1,1h-5c-0.553,0-1-0.448-1-1s0.447-1,1-1H25 M25,18h-5c-1.103,0-2,0.897-2,2 s0.897,2,2,2h5c1.103,0,2-0.897,2-2S26.103,18,25,18L25,18z"/><g><path d="M28,29h-8c-0.553,0-1-0.448-1-1s0.447-1,1-1h8c0.553,0,1,0.448,1,1S28.553,29,28,29z"/><path d="M28,27c0.553,0,1,0.448,1,1s-0.447,1-1,1h-8c-0.553,0-1-0.448-1-1s0.447-1,1-1H28 M28,26h-8c-1.103,0-2,0.897-2,2 s0.897,2,2,2h8c1.103,0,2-0.897,2-2S29.103,26,28,26L28,26z"/></g></svg>